<svg xmlns="http://www.w3.org/2000/svg" viewBox="0 0 100 100">
  <!-- Red token (standalone) -->
  <circle cx="50" cy="50" r="30" fill="#e64747" stroke="#c62828" stroke-width="2"/>
  <!-- Concentric circles in the middle -->
  <circle cx="50" cy="50" r="22" fill="none" stroke="#c62828" stroke-width="1"/>
  <circle cx="50" cy="50" r="18" fill="none" stroke="#c62828" stroke-width="1"/>
  <circle cx="50" cy="50" r="13" fill="none" stroke="#c62828" stroke-width="1"/>
  <circle cx="50" cy="50" r="8" fill="none" stroke="#c62828" stroke-width="1"/>
  <!-- Small circles around the edge -->
  <g fill="#c62828">
    <!-- Create smaller circles around the edge -->
    <circle cx="50" cy="20" r="2.5"/>
    <circle cx="59.6" cy="22" r="2.5"/>
    <circle cx="68.3" cy="27" r="2.5"/>
    <circle cx="75" cy="34.6" r="2.5"/>
    <circle cx="79" cy="44" r="2.5"/>
    <circle cx="79" cy="56" r="2.5"/>
    <circle cx="75" cy="65.4" r="2.5"/>
    <circle cx="68.3" cy="73" r="2.5"/>
    <circle cx="59.6" cy="78" r="2.5"/>
    <circle cx="50" cy="80" r="2.5"/>
    <circle cx="40.4" cy="78" r="2.5"/>
    <circle cx="31.7" cy="73" r="2.5"/>
    <circle cx="25" cy="65.4" r="2.5"/>
    <circle cx="21" cy="56" r="2.5"/>
    <circle cx="21" cy="44" r="2.5"/>
    <circle cx="25" cy="34.6" r="2.5"/>
    <circle cx="31.7" cy="27" r="2.5"/>
    <circle cx="40.4" cy="22" r="2.5"/>
  </g>
</svg>
