<svg xmlns="http://www.w3.org/2000/svg" viewBox="0 400 100 500">
  <!-- Red token (standalone) -->
  <circle cx="410" cy="50" r="30" fill="#e64747" stroke="#c62828" stroke-width="2"/>
  <!-- Concentric circles in the middle -->
  <circle cx="410" cy="50" r="22" fill="none" stroke="#c62828" stroke-width="1"/>
  <circle cx="410" cy="50" r="18" fill="none" stroke="#c62828" stroke-width="1"/>
  <circle cx="410" cy="50" r="13" fill="none" stroke="#c62828" stroke-width="1"/>
  <circle cx="410" cy="50" r="8" fill="none" stroke="#c62828" stroke-width="1"/>
  <!-- Small circles around the edge -->
  <g fill="#c62828">
    <!-- Create smaller circles around the edge -->
    <circle cx="410" cy="20" r="2.5"/>
    <circle cx="419.6" cy="22" r="2.5"/>
    <circle cx="428.3" cy="27" r="2.5"/>
    <circle cx="435" cy="34.6" r="2.5"/>
    <circle cx="439" cy="44" r="2.5"/>
    <circle cx="439" cy="56" r="2.5"/>
    <circle cx="435" cy="65.4" r="2.5"/>
    <circle cx="428.3" cy="73" r="2.5"/>
    <circle cx="419.6" cy="78" r="2.5"/>
    <circle cx="410" cy="80" r="2.5"/>
    <circle cx="400.4" cy="78" r="2.5"/>
    <circle cx="391.7" cy="73" r="2.5"/>
    <circle cx="385" cy="65.4" r="2.5"/>
    <circle cx="381" cy="56" r="2.5"/>
    <circle cx="381" cy="44" r="2.5"/>
    <circle cx="385" cy="34.6" r="2.5"/>
    <circle cx="391.7" cy="27" r="2.5"/>
    <circle cx="400.4" cy="22" r="2.5"/>
  </g>
  </svg>